<svg width="420" height="104" viewBox="0 0 420 104" fill="none" xmlns="http://www.w3.org/2000/svg" role="img" aria-label="VPS Tecnologia">
  <defs>
    <linearGradient id="vpsBlue" x1="24" y1="12" x2="154" y2="92" gradientUnits="userSpaceOnUse">
      <stop stop-color="#38BDF8"/>
      <stop offset="0.48" stop-color="#2563EB"/>
      <stop offset="1" stop-color="#1D4ED8"/>
    </linearGradient>
    <linearGradient id="vpsSilver" x1="32" y1="14" x2="150" y2="90" gradientUnits="userSpaceOnUse">
      <stop stop-color="#FFFFFF"/>
      <stop offset="0.45" stop-color="#CBD5E1"/>
      <stop offset="1" stop-color="#475569"/>
    </linearGradient>
  </defs>

  <g>
    <path d="M34 18C47 8 66 4 85 8C107 13 123 27 130 45" stroke="url(#vpsBlue)" stroke-width="7" stroke-linecap="round"/>
    <path d="M30 87C44 96 64 100 83 96C105 91 121 77 128 59" stroke="url(#vpsBlue)" stroke-width="7" stroke-linecap="round"/>

    <rect x="18" y="25" width="7" height="7" rx="1.5" fill="#2563EB"/>
    <rect x="29" y="17" width="6" height="6" rx="1.2" fill="#60A5FA"/>
    <rect x="34" y="29" width="6" height="6" rx="1.2" fill="#38BDF8"/>
    <rect x="142" y="18" width="7" height="7" rx="1.5" fill="#2563EB"/>
    <rect x="151" y="30" width="6" height="6" rx="1.2" fill="#38BDF8"/>

    <path d="M38 34L60 75L82 30" stroke="url(#vpsSilver)" stroke-width="10" stroke-linecap="round" stroke-linejoin="round"/>
    <path d="M89 75V31H119C132 31 140 39 140 51C140 63 132 71 119 71H103" stroke="url(#vpsBlue)" stroke-width="10" stroke-linecap="round" stroke-linejoin="round"/>
    <path d="M151 32H181C190 32 196 38 196 47C196 56 190 62 181 62H164C155 62 150 67 150 76C150 85 157 90 166 90H198" stroke="url(#vpsSilver)" stroke-width="10" stroke-linecap="round" stroke-linejoin="round"/>
  </g>

  <g>
    <text x="220" y="47" font-family="Arial, Helvetica, sans-serif" font-size="28" font-weight="800" fill="#0F172A" letter-spacing="1.5">TECNOLOGIA</text>
    <text x="222" y="74" font-family="Arial, Helvetica, sans-serif" font-size="14" font-weight="700" fill="#2563EB" letter-spacing="5">SOLUÇÕES EM TI</text>
  </g>
</svg>