<svg width="420" height="110" viewBox="0 0 420 110" fill="none" xmlns="http://www.w3.org/2000/svg">
  <defs>
    <linearGradient id="blue" x1="0" y1="0" x2="110" y2="110" gradientUnits="userSpaceOnUse">
      <stop stop-color="#38BDF8"/>
      <stop offset="1" stop-color="#2563EB"/>
    </linearGradient>
    <linearGradient id="silver" x1="0" y1="0" x2="100" y2="80" gradientUnits="userSpaceOnUse">
      <stop stop-color="#FFFFFF"/>
      <stop offset=".5" stop-color="#CBD5E1"/>
      <stop offset="1" stop-color="#64748B"/>
    </linearGradient>
  </defs>

  <rect width="420" height="110" rx="24" fill="#0F172A"/>
  <circle cx="56" cy="55" r="35" stroke="url(#blue)" stroke-width="6"/>
  <path d="M28 39L47 75L66 34" stroke="url(#silver)" stroke-width="10" stroke-linecap="round" stroke-linejoin="round"/>
  <path d="M73 75V35H99C112 35 120 43 120 55C120 67 112 75 99 75H84" stroke="url(#blue)" stroke-width="10" stroke-linecap="round" stroke-linejoin="round"/>
  <path d="M134 38H169C178 38 184 44 184 53C184 62 178 68 169 68H149C140 68 135 73 135 82C135 91 142 96 151 96H188" stroke="url(#silver)" stroke-width="10" stroke-linecap="round" stroke-linejoin="round"/>

  <text x="210" y="48" font-family="Arial, Helvetica, sans-serif" font-size="27" font-weight="800" fill="#FFFFFF">VPS Tecnologia</text>
  <text x="212" y="78" font-family="Arial, Helvetica, sans-serif" font-size="14" font-weight="700" letter-spacing="5" fill="#93C5FD">SOLUÇÕES EM TI</text>
</svg>